<svg width="1080" height="1350" viewBox="0 0 1080 1350" fill="none" xmlns="http://www.w3.org/2000/svg">
<g clip-path="url(#clip0_164_12)">
<path d="M303.963 643.436H479.094M303.963 643.436V851.149M303.963 643.436L309.84 658.579M479.094 643.436V851.149M479.094 643.436L484.971 658.579M479.094 851.149H303.963M479.094 851.149L484.971 856.498M303.963 851.149L309.84 856.498M309.84 658.579H484.971M309.84 658.579V856.498M484.971 658.579V856.498M484.971 856.498H309.84M318.771 1013.25H485.701M318.771 1013.25V1236.05M318.771 1013.25L288.418 1023.04M485.701 1013.25V1236.05M485.701 1013.25L473.427 1023.04M485.701 1013.25H623.765M485.701 1236.05H318.771M485.701 1236.05L473.427 1253.08M318.771 1236.05L288.418 1253.08M318.771 1236.05V1259.65M288.418 1023.04H473.427M288.418 1023.04V1253.08M473.427 1023.04H629.91M473.427 1023.04V1070.26M473.427 1253.08H629.91M473.427 1253.08H290.504M473.427 1253.08V1216.78M288.418 1253.08H290.504M1005.24 1013.25H844.606M1005.24 1013.25V1236.05M1005.24 1013.25L1065.41 1023.04M844.606 1013.25V1236.05M844.606 1013.25L880.397 1023.04M844.606 1013.25H623.765M844.606 1236.05L880.397 1253.08M844.606 1236.05H999.067M1005.24 1236.05L1065.41 1253.08M1005.24 1236.05H999.067M1065.41 1023.04H880.397M1065.41 1023.04V1253.08M880.397 1023.04V1253.08M880.397 1023.04H629.91M880.397 1253.08H629.91M880.397 1253.08H1057.99M1065.41 1253.08H1057.99M629.91 1023.04L623.765 1013.25M629.91 1023.04V1070.26M629.91 1253.08L623.765 1237.31V1013.25M629.91 1253.08V1216.78M290.504 1253.08V1282.81M290.504 1282.81H1057.99M290.504 1282.81L318.771 1259.65M1057.99 1282.81V1253.08M1057.99 1282.81C1056.75 1281.77 1018.19 1265.39 999.067 1259.65M1057.99 1253.08L999.067 1236.05M999.067 1236.05V1259.65M999.067 1259.65H318.771M473.427 1070.26C476.659 1070.26 579.096 1070.26 629.91 1070.26M473.427 1070.26V1216.78M629.91 1070.26V1216.78M473.427 1216.78C476.225 1216.78 578.915 1216.78 629.91 1216.78M1037.49 643.436V851.149M1037.49 643.436L1013.61 658.579M1037.49 643.436H861.434M628.291 643.436V851.149M628.291 643.436L607.607 658.579M628.291 643.436H861.434M628.291 851.149L607.607 856.498M628.291 851.149H861.434M1037.49 851.149L1013.61 856.498M1037.49 851.149H861.434M1013.61 658.579H607.607M1013.61 658.579V856.498M607.607 658.579V856.498M607.607 856.498H1013.61M861.434 643.436V851.149M530.708 652.137H579.063M530.708 652.137C530.48 678.742 530.024 740.272 530.024 773.548M530.708 652.137L532.334 659.06M579.063 652.137V773.548M579.063 652.137L577.039 659.06M579.063 773.548C594.514 796.696 625.416 843.727 625.416 846.671C625.416 850.352 625.585 851.396 624.678 854.507C623.952 856.995 623.638 857.882 623.571 858.015M579.063 773.548L577.039 775.403M623.571 858.015H486.513M623.571 858.015L616.247 850.195M486.513 858.015C485.259 856.755 482.75 853.426 482.75 850.195C482.75 846.156 507.307 811.305 530.024 773.548M486.513 858.015L491.66 850.195M530.024 773.548L531.968 775.403M532.334 659.06H577.039M532.334 659.06L531.968 775.403M577.039 659.06V775.403M577.039 775.403C590.719 797.328 618.446 841.729 619.912 843.926C621.744 846.671 620.278 850.195 616.247 850.195M616.247 850.195H491.66M491.66 850.195C489.645 850.195 490.195 846.857 492.76 842.826C494.812 839.602 519.753 796.534 531.968 775.403M511.611 1177.91C485.701 1142.58 513.508 1099.67 551.92 1099.67C590.332 1099.67 616.651 1147.09 592.229 1177.91C559.982 1177.91 525.047 1177.91 511.611 1177.91ZM487.176 1015.14L480.45 1020.95H625.001L621.967 1014.88L487.176 1015.14Z" stroke="white" stroke-width="3"/>
</g>
<defs>
<clipPath id="clip0_164_12">
<rect width="1080" height="1350" fill="white"/>
</clipPath>
</defs>
</svg>
