<svg width="540" height="209" viewBox="0 0 540 209" fill="none" xmlns="http://www.w3.org/2000/svg">
<path d="M147.303 0L0 148.958V208.636L540 208.636V2.95531e-05L147.303 0Z" fill="#F5F4F1"/>
<g clip-path="url(#clip0_340_1786)">
<path d="M402.46 140.55H389.776L398.197 148.875H402.46C403.661 148.875 404.638 149.855 404.638 151.06C404.638 152.264 403.661 153.243 402.46 153.243H398.197V148.875H389.915V165.545H398.197V161.553H402.46C408.229 161.553 412.921 156.845 412.921 151.06C412.921 145.274 408.229 140.55 402.46 140.55ZM428.551 139.992C421.167 139.992 415.157 146.021 415.157 153.43C415.157 160.839 421.167 166.869 428.551 166.869C435.936 166.869 441.946 160.839 441.946 153.43C441.946 146.021 435.936 139.992 428.551 139.992ZM428.551 158.559C425.729 158.559 423.439 156.254 423.439 153.43C423.439 150.606 425.729 148.302 428.551 148.302C431.374 148.302 433.663 150.606 433.663 153.43C433.663 156.254 431.374 158.559 428.551 158.559ZM385.498 140.55V165.545H377.222V147.55H368.75V165.545H360.474V140.55H385.498Z" fill="#FDC300"/>
<path d="M459.909 108.474V133.665H451.25V124.27H442.942V133.665H434.278V108.474H442.942V117.156H451.25V108.474H459.909ZM319.538 108.472L319.209 118.402C319.164 119.99 319.058 121.441 318.896 122.714C318.734 123.956 318.441 124.95 318.016 125.671C317.49 126.558 316.616 126.842 315.342 126.568L314.579 126.406V133.598L314.796 133.654C315.463 133.821 316.105 133.938 316.702 134.014C317.293 134.085 317.865 134.121 318.39 134.121C320.129 134.121 321.58 133.72 322.692 132.939C323.8 132.158 324.664 131.169 325.271 129.723C325.867 128.303 326.292 126.589 326.54 124.626C326.787 122.678 326.949 120.482 327.02 118.103L327.096 115.501H332.186V133.659H340.912V108.472H319.538ZM353.385 126.847V123.967H365.102V117.811H353.385V115.283H366.54V108.474H344.709V133.657H366.996V126.847H353.385ZM393.794 108.473L386.296 116.905L378.798 108.473H369.65V133.659H378.321V121.741H378.378L378.402 121.766L386.272 129.516L394.239 121.66L394.247 121.676V121.782L394.272 133.659H402.934V108.473H393.794ZM462.817 120.378V133.659H471.076V120.378C471.076 118.049 473.009 116.15 475.33 116.15C477.652 116.15 479.552 118.049 479.552 120.378V125.312H471.173L479.374 133.659H487.884V120.378C487.884 113.44 482.246 107.799 475.33 107.799C468.423 107.799 462.817 113.44 462.817 120.378ZM418.4 107.799C411.484 107.799 405.846 113.44 405.846 120.378V133.659H414.356L422.557 125.312H414.178V120.378C414.178 118.049 416.07 116.15 418.4 116.15C420.729 116.15 422.654 118.049 422.654 120.378V133.659H430.913V120.378C430.913 113.44 425.307 107.799 418.4 107.799Z" fill="#21282B"/>
<path d="M414.156 40.2756L401.208 53.1198L413.151 64.967V79.7518H389.266V95.5779H431.523V57.5046L414.156 40.2756Z" fill="#BF8900"/>
<path d="M401.21 27.4293L370.895 57.5025V95.5753H389.268V79.7492V64.9644L401.21 53.1173L414.158 40.2735L401.21 27.4293Z" fill="#FDC300"/>
<path d="M401.209 53.1198L414.157 40.2756L403.608 55.4991L401.209 53.1198Z" fill="#815F00"/>
<path d="M389.266 79.7486V95.5747L392.698 79.7486H389.266Z" fill="#815F00"/>
</g>
<g clip-path="url(#clip1_340_1786)">
<path d="M91.1836 160.118H230.361L160.772 90.3747L91.1836 160.118Z" fill="#5AB030"/>
<path d="M166.496 71.8922L154.182 77.7797L151.771 75.3675L157.649 63.0301L148.558 72.1401L144.901 68.4742L160.728 52.6091L165.908 57.7957L159.944 69.5881L171.867 63.7642L176.89 68.8079L161.058 84.673L157.4 81.0071L166.496 71.8922Z" fill="black"/>
<path d="M138.565 74.8527L141.506 83.8102L141.425 83.8007L132.926 80.497L128.505 84.9257L143.191 89.5785L149.36 95.7615L153.38 91.7332L147.178 85.5121L143.244 70.1571L138.565 74.8527Z" fill="black"/>
<path fill-rule="evenodd" clip-rule="evenodd" d="M120.603 92.148C125.554 87.1854 132.1 87.6668 136.741 92.3148C141.377 96.9628 141.864 103.522 136.913 108.48C131.962 113.443 125.416 112.961 120.78 108.313C116.134 103.665 115.657 97.1058 120.603 92.148ZM123.75 95.2991C121.238 97.8161 122.078 100.877 125.139 103.942C128.199 107.007 131.25 107.846 133.762 105.334C136.273 102.817 135.433 99.7564 132.372 96.6911C129.312 93.621 126.261 92.782 123.75 95.2991Z" fill="black"/>
<path d="M117.084 114.253L127.856 117.314L123.544 121.633L109.856 117.752L112.214 115.388C113.37 114.234 113.399 112.389 112.286 111.274C111.169 110.153 109.335 110.192 108.185 111.35L105.592 113.943L118.407 126.786L114.392 130.814L98.5593 114.944L106.581 106.902L106.585 106.907C109.249 104.233 113.251 104.152 115.6 106.497C117.782 108.685 118.335 111.884 117.094 114.248L117.084 114.253Z" fill="black"/>
<path d="M92.6054 127.387L95.3078 130.095L100.875 124.507L104.107 127.744L98.5306 133.331L101.978 136.783L108.863 129.88L112.095 133.112L101.185 144.043L85.3529 128.178L96.2627 117.242L99.4902 120.479L92.6054 127.387Z" fill="black"/>
<path d="M88.1795 157.082L98.9173 146.322L95.3126 142.709L88.5853 149.449L76.3578 137.193L72.3472 141.216L88.1795 157.082Z" fill="black"/>
<path d="M214.766 138.499L230.599 122.629L226.383 118.401L210.55 134.271L214.766 138.499Z" fill="black"/>
<path d="M181.631 80.025L178.929 82.7328L185.002 88.8205L181.769 92.0574L175.701 85.9649L172.254 89.4211L179.645 96.8245L176.417 100.061L165.011 88.6298L180.838 72.7647L192.249 84.1963L189.017 87.4237L181.631 80.025Z" fill="black"/>
<path d="M207.647 131.382L196.914 120.622L212.742 104.757L216.752 108.776L204.53 121.027L211.252 127.768L207.647 131.382Z" fill="black"/>
<path d="M239.56 131.601L234.485 148.424L245.409 137.469L249.171 141.24L233.344 157.096L228.378 152.124L232.707 134.806L221.899 145.631L218.247 141.97L234.07 126.104L239.56 131.601Z" fill="black"/>
<path d="M196.967 106.821L193.916 117.619L189.605 113.29L192.98 99.0699L195.84 101.94C196.995 103.093 198.834 103.127 199.946 102.006C201.063 100.891 201.02 99.0556 199.875 97.8971L196.781 94.8033L183.966 107.651L179.95 103.623L195.783 87.7526L204.305 96.2906V96.2954C206.969 98.9697 207.055 102.979 204.711 105.334C202.529 107.517 199.335 108.075 196.976 106.831L196.967 106.821Z" fill="black"/>
</g>
<defs>
<clipPath id="clip0_340_1786">
<rect width="174.273" height="139.877" fill="white" transform="translate(314.182 27.0323)"/>
</clipPath>
<clipPath id="clip1_340_1786">
<rect width="176.824" height="107.509" fill="white" transform="translate(72.3462 52.6091)"/>
</clipPath>
</defs>
</svg>
