<svg width="1080" height="1350" viewBox="0 0 1080 1350" fill="none" xmlns="http://www.w3.org/2000/svg">
<g clip-path="url(#clip0_165_40)">
<path d="M53.6001 1167.42C52.7314 1166.57 52.7254 1165.63 53.6001 1164.64C59.939 1157.4 119.076 1110.37 146.435 1092.46C152.311 1088.62 162.632 1086.28 231.398 1086.28C394.667 1083.87 730.072 1088.17 752.966 1088.17C789.409 1088.17 815.824 1085.4 830.733 1097.41C845.641 1109.42 895.751 1150.83 910.659 1162.02C914.76 1165.09 916.417 1167.23 916.233 1168.71M53.6001 1167.42C56.3909 1170.14 68.0858 1171.95 88.0879 1171.95C114.316 1171.95 866.762 1171.95 887.468 1171.95C902.48 1171.95 915.75 1172.61 916.233 1168.71M53.6001 1167.42C59.33 1171.2 72.2226 1178.75 77.9537 1178.75C79.2396 1178.75 106.174 1178.75 149.542 1178.75M916.233 1168.71C907.318 1175.4 900.139 1178.75 894.265 1178.75C893.216 1178.75 866.726 1178.75 823.877 1178.75M149.542 1178.75L133.686 1389.52C135.594 1389.55 137.868 1389.56 140.302 1389.52M149.542 1178.75C151.388 1178.75 153.263 1178.75 155.168 1178.75M149.542 1178.75H155.168M182.787 1178.75C176.82 1246.11 164.784 1381.75 164.375 1385.43C164.043 1388.41 150.703 1389.36 140.302 1389.52M182.787 1178.75C173.028 1178.75 163.8 1178.75 155.168 1178.75M182.787 1178.75H155.168M182.787 1178.75C191.035 1178.75 199.662 1178.75 208.627 1178.75M155.168 1178.75C150.224 1247.64 140.329 1386.25 140.302 1389.52M823.877 1178.75L835.563 1409.8C833.553 1408.54 831.17 1406.99 828.617 1405.27M823.877 1178.75C821.736 1178.75 819.554 1178.75 817.333 1178.75M789.287 1178.75C793.494 1243.93 802.001 1375.77 802.375 1381.76C802.68 1386.64 817.314 1397.65 828.617 1405.27M789.287 1178.75C799.206 1178.75 808.578 1178.75 817.333 1178.75M789.287 1178.75C782.378 1178.75 775.203 1178.75 767.785 1178.75M817.333 1178.75L828.617 1405.27M743.011 1178.75C743.011 1181.48 749.648 1315.22 752.966 1381.76C755.139 1382.54 757.887 1383.3 760.753 1383.75M743.011 1178.75C745.368 1178.75 747.705 1178.75 750.023 1178.75M743.011 1178.75C598.094 1178.75 380.39 1178.75 233.916 1178.75M767.785 1178.75C771.057 1238.47 777.601 1361.19 777.601 1374.28C777.601 1383.9 768.72 1385.02 760.753 1383.75M767.785 1178.75C762.008 1178.75 756.083 1178.75 750.023 1178.75M750.023 1178.75C752.377 1181.48 758.157 1316.56 760.753 1383.75M208.627 1178.75L197.388 1377.11H214.247M208.627 1178.75C214.346 1178.75 220.204 1178.75 226.189 1178.75M233.916 1178.75L220.569 1377.11H214.247M233.916 1178.75C231.317 1178.75 228.741 1178.75 226.189 1178.75M226.189 1178.75L214.247 1377.11" stroke="white" stroke-width="3"/>
</g>
<defs>
<clipPath id="clip0_165_40">
<rect width="1080" height="1350" fill="white"/>
</clipPath>
</defs>
</svg>
